<?xml version="1.0" encoding="UTF-8"?>
<svg version="1.1" xmlns="http://www.w3.org/2000/svg" width="51" height="51">
<path d="M0 0 C2.15976588 1.30460996 3.73648601 2.66216166 5.46484375 4.4921875 C6.93772054 6.11034133 6.93772054 6.11034133 9.01953125 6.921875 C13.11766569 9.15281209 14.55474501 13.76625303 16 18 C17.08832006 24.21551678 16.87409049 29.37697888 13.5 34.8125 C10.27996579 38.99624991 6.53717824 43.23319195 2 46 C1.01 45.67 0.02 45.34 -1 45 C-3.01359233 45.94229933 -3.01359233 45.94229933 -5 47.375 C-9.21398167 50.23220727 -12.22336565 51.12583776 -17.32421875 51.09765625 C-18.35224609 51.09443359 -19.38027344 51.09121094 -20.43945312 51.08789062 C-21.51130859 51.07951172 -22.58316406 51.07113281 -23.6875 51.0625 C-24.77095703 51.05798828 -25.85441406 51.05347656 -26.97070312 51.04882812 C-29.64719085 51.03703743 -32.32356777 51.02058063 -35 51 C-35.11728126 47.33360752 -35.18760891 43.6677048 -35.25 40 C-35.30027344 38.45505859 -35.30027344 38.45505859 -35.3515625 36.87890625 C-35.47036562 27.55286139 -32.90285312 21.51415118 -26.7265625 14.609375 C-23.80808759 11.88898662 -20.48218021 9.91785052 -17 8 C-17.33 6.68 -17.66 5.36 -18 4 C-12.2379146 -0.09748295 -7.04600078 -1.41127556 0 0 Z " fill="#FDCB01" transform="translate(35,0)"/>
<path d="M0 0 C2.15976588 1.30460996 3.73648601 2.66216166 5.46484375 4.4921875 C6.93772054 6.11034133 6.93772054 6.11034133 9.01953125 6.921875 C13.11766569 9.15281209 14.55474501 13.76625303 16 18 C17.08832006 24.21551678 16.87409049 29.37697888 13.5 34.8125 C10.23355336 39.07443514 6.40608067 42.91375881 2 46 C1.34 46 0.68 46 0 46 C-4.5542843 25.18041464 -4.5542843 25.18041464 -0.875 18.9375 C1.80486359 15.05976042 4.83098963 11.4848224 8 8 C6.329375 8.2784375 6.329375 8.2784375 4.625 8.5625 C1 9 1 9 -1 8 C-3.55157655 7.9283265 -6.07472971 7.90691558 -8.625 7.9375 C-9.68460938 7.94426758 -9.68460938 7.94426758 -10.765625 7.95117188 C-12.51045275 7.96296125 -14.255237 7.98089676 -16 8 C-16.66 6.68 -17.32 5.36 -18 4 C-12.2379146 -0.09748295 -7.04600078 -1.41127556 0 0 Z " fill="#339944" transform="translate(35,0)"/>
<path d="M0 0 C0 3.73837399 -0.87486844 4.27919685 -3.375 6.9375 C-7.50511422 11.34805408 -9.3441531 14.30260971 -9.203125 20.49609375 C-8.78059157 25.70463079 -7.87891163 30.85208901 -7 36 C-8.43457328 36.9834496 -9.87277406 37.96160921 -11.3125 38.9375 C-12.11300781 39.48277344 -12.91351562 40.02804688 -13.73828125 40.58984375 C-17.28703186 42.80244992 -20.01536342 43.12129848 -24.10546875 43.09765625 C-25.08837891 43.09443359 -26.07128906 43.09121094 -27.08398438 43.08789062 C-28.10814453 43.07951172 -29.13230469 43.07113281 -30.1875 43.0625 C-31.22326172 43.05798828 -32.25902344 43.05347656 -33.32617188 43.04882812 C-35.88417266 43.0370401 -38.44205733 43.02058515 -41 43 C-39.359375 40.5078125 -39.359375 40.5078125 -37 38 C-34.265625 37.6171875 -34.265625 37.6171875 -31.25 37.875 C-25.56065932 38.11754193 -22.13341645 37.43161832 -17 35 C-16.10152344 34.62617187 -15.20304687 34.25234375 -14.27734375 33.8671875 C-13.52582031 33.25101563 -12.77429688 32.63484375 -12 32 C-11.75371664 29.28780454 -11.76783633 27.11061951 -12 24.4375 C-12.30624406 17.21273964 -11.53350196 11.92497285 -7 6 C-4.77350361 3.71830122 -2.56975206 1.91471722 0 0 Z " fill="#CBA501" transform="translate(42,8)"/>
<path d="M0 0 C4.75116304 6.28164973 6.69387382 10.99346955 6.4765625 18.96484375 C5.20627553 27.05511404 -0.8313595 32.18846041 -7 37 C-7.33 36.34 -7.66 35.68 -8 35 C-7.11008657 32.51001044 -6.16568638 30.11345559 -5.125 27.6875 C-2.16484634 20.71964971 -0.87792462 14.73247916 -0.4375 7.1875 C-0.37272461 6.14819336 -0.37272461 6.14819336 -0.30664062 5.08789062 C-0.20138547 3.39211314 -0.10027137 1.69607948 0 0 Z " fill="#38B249" transform="translate(45,8)"/>
<path d="M0 0 C-2.19344445 2.39410656 -4.36269501 3.80510838 -7.1875 5.375 C-12.71435396 8.9208703 -15.33687937 13.77693199 -18.46875 19.3671875 C-18.9740625 20.23601563 -19.479375 21.10484375 -20 22 C-20.33 22 -20.66 22 -21 22 C-20.96607593 14.67240134 -19.00765487 10.3206333 -14 5 C-9.05259374 0.61479899 -6.61293119 -0.12246169 0 0 Z " fill="#FFDE5D" transform="translate(26,13)"/>
<path d="M0 0 C0 3.71848056 -0.84406527 4.27486129 -3.3125 6.9375 C-5.70046383 9.53572479 -7.92379849 12.14442438 -10 15 C-9.84238796 8.69551854 -6.32392365 5.18412011 -2 1 C-1.34 0.67 -0.68 0.34 0 0 Z " fill="#BEA507" transform="translate(42,8)"/>
</svg>
