<?xml version="1.0" encoding="UTF-8"?>
<svg version="1.1" xmlns="http://www.w3.org/2000/svg" width="51" height="51">
<path d="M0 0 C1.32 1.32 2.64 2.64 4 4 C3.61328125 4.44988281 3.2265625 4.89976562 2.828125 5.36328125 C-0.29994115 9.22690751 -2.42664099 12.70408941 -4 17.4375 C-6.47051864 24.84905593 -10.38924621 30.59705191 -16 36 C-16.33 36.99 -16.66 37.98 -17 39 C-16.34 39 -15.68 39 -15 39 C-13.28533964 42.42932071 -13.94595944 46.21716065 -14 50 C-16.97 50 -19.94 50 -23 50 C-22.34 47.69 -21.68 45.38 -21 43 C-26.19870397 41.26709868 -31.12652257 43.83498395 -36 46 C-38.74042182 47.56129474 -41.38369567 49.23956118 -44 51 C-44.99 49.68 -45.98 48.36 -47 47 C-46.61328125 46.55011719 -46.2265625 46.10023437 -45.828125 45.63671875 C-41.99187656 40.89838219 -39.97697744 36.51395704 -38.0703125 30.75390625 C-36.37143977 26.38271912 -33.74776757 22.76836696 -31 19 C-30.34 18.01 -29.68 17.02 -29 16 C-29.495 15.21625 -29.99 14.4325 -30.5 13.625 C-32 11 -32 11 -32 9 C-30.68 9 -29.36 9 -28 9 C-29.32 6.36 -30.64 3.72 -32 1 C-28.37 1 -24.74 1 -21 1 C-20.34 3.97 -19.68 6.94 -19 10 C-12.03949792 7.31409197 -5.85812132 4.65986923 0 0 Z " fill="#A92D2D" transform="translate(47,0)"/>
<path d="M0 0 C3.63 0 7.26 0 11 0 C11.66 2.97 12.32 5.94 13 9 C14.03125 8.505 15.0625 8.01 16.125 7.5 C19.52451578 6.02526098 22.27021549 5.72708894 26 6 C24.68842484 9.93472548 22.66616553 11.12683424 19.4375 13.6875 C18.42558594 14.49574219 17.41367187 15.30398437 16.37109375 16.13671875 C15.58863281 16.75160156 14.80617188 17.36648437 14 18 C17.25587478 16.10121488 20.31605415 14.0979248 23.3125 11.8125 C24.00988281 11.28269531 24.70726563 10.75289062 25.42578125 10.20703125 C26.20501953 9.60955078 26.20501953 9.60955078 27 9 C21.941392 22.89301911 8.47830229 33.9281575 -4 41 C-4 36.9255567 -1.90830751 34.88254967 0.5 31.8125 C0.92925781 31.25369141 1.35851563 30.69488281 1.80078125 30.11914062 C2.86078055 28.74114153 3.92956188 27.36990593 5 26 C4.39671875 26.60328125 3.7934375 27.2065625 3.171875 27.828125 C0.78125 30.21875 -1.609375 32.609375 -4 35 C-2.51194289 29.19657726 0.59097555 24.82409121 4 20 C-1.40391438 26.72010568 -1.40391438 26.72010568 -6 34 C-7 31 -7 31 -6.1796875 28.984375 C-3.34330581 24.12685905 -0.36064006 19.51285951 3 15 C2.505 14.21625 2.01 13.4325 1.5 12.625 C0 10 0 10 0 8 C1.32 8 2.64 8 4 8 C2.68 5.36 1.36 2.72 0 0 Z " fill="#E16665" transform="translate(15,1)"/>
<path d="M0 0 C1.59992006 5.22064507 -0.72932972 8.27182913 -3.16796875 12.94921875 C-5.29839908 16.49690763 -7.70173902 19.42231489 -10.58203125 22.37890625 C-12.23348285 24.05616634 -12.23348285 24.05616634 -13 27 C-12.34 27 -11.68 27 -11 27 C-9.28533964 30.42932071 -9.94595944 34.21716065 -10 38 C-12.97 38 -15.94 38 -19 38 C-18.34 35.69 -17.68 33.38 -17 31 C-20.35370179 29.8820994 -20.75635844 30.12334012 -24 31 C-26.662062 31.3832143 -29.32819962 31.68828996 -32 32 C-29.66648577 29.49279377 -27.15128924 27.65738115 -24.3125 25.75 C-13.91725069 18.4793343 -7.23009514 10.32680869 0 0 Z " fill="#DB4949" transform="translate(43,12)"/>
<path d="M0 0 C3.63 0 7.26 0 11 0 C11.75372099 3.76860494 12.11244419 6.56668585 12.0625 10.3125 C12.05347656 11.19550781 12.04445313 12.07851562 12.03515625 12.98828125 C12.02355469 13.65214844 12.01195312 14.31601563 12 15 C10.68 14.67 9.36 14.34 8 14 C8.350625 14.763125 8.70125 15.52625 9.0625 16.3125 C10 19 10 19 9 22 C6 18.25 6 18.25 6 16 C5.01 15.67 4.02 15.34 3 15 C0 10.66666667 0 10.66666667 0 8 C1.32 8 2.64 8 4 8 C2.68 5.36 1.36 2.72 0 0 Z " fill="#F7C86B" transform="translate(15,1)"/>
<path d="M0 0 C0.33 0 0.66 0 1 0 C1 1.98 1 3.96 1 6 C1.66 6 2.32 6 3 6 C4.71466036 9.42932071 4.05404056 13.21716065 4 17 C1.03 17 -1.94 17 -5 17 C-4.34 14.69 -3.68 12.38 -3 10 C-3.99 9.67 -4.98 9.34 -6 9 C-5.02501855 7.4972763 -4.04490611 5.99788037 -3.0625 4.5 C-2.51722656 3.6646875 -1.97195312 2.829375 -1.41015625 1.96875 C-0.94480469 1.3190625 -0.47945312 0.669375 0 0 Z " fill="#E8B345" transform="translate(29,33)"/>
<path d="M0 0 C1.65 0 3.3 0 5 0 C6.32286246 4.96073422 6.08893197 9.91111512 6 15 C4.68 14.67 3.36 14.34 2 14 C2.33 15.32 2.66 16.64 3 18 C0.49962266 15.82575883 -0.43628586 14.26954202 -1 11 C0.32 11 1.64 11 3 11 C2.01 7.37 1.02 3.74 0 0 Z " fill="#E7B244" transform="translate(21,1)"/>
<path d="M0 0 C1.32 1.32 2.64 2.64 4 4 C2.02 6.64 0.04 9.28 -2 12 C-3.98 10.35 -5.96 8.7 -8 7 C-5.42215154 4.35247996 -3.08351902 2.05567935 0 0 Z " fill="#871717" transform="translate(47,0)"/>
<path d="M0 0 C1.98 1.65 3.96 3.3 6 5 C3.19195732 7.96404505 0.81684226 10.44499019 -3 12 C-3.99 10.68 -4.98 9.36 -6 8 C-4.02 5.36 -2.04 2.72 0 0 Z " fill="#871717" transform="translate(6,39)"/>
<path d="M0 0 C0.33 0.99 0.66 1.98 1 3 C1.66 3 2.32 3 3 3 C4.20272819 5.40545638 4.10071472 6.94996953 4.0625 9.625 C4.05347656 10.44226562 4.04445313 11.25953125 4.03515625 12.1015625 C4.02355469 12.72804688 4.01195312 13.35453125 4 14 C2.68 14 1.36 14 0 14 C0.33 11.03 0.66 8.06 1 5 C0.01 5 -0.98 5 -2 5 C-1.34 3.35 -0.68 1.7 0 0 Z " fill="#F8C96C" transform="translate(29,36)"/>
<path d="M0 0 C0 3.84273719 -1.30448414 5.27445636 -3.4375 8.4375 C-6.4670856 12.90206142 -6.4670856 12.90206142 -8 18 C-8.66 17.67 -9.32 17.34 -10 17 C-10.66 17.66 -11.32 18.32 -12 19 C-12 15 -12 15 -10.72265625 13.56640625 C-10.15417969 13.04949219 -9.58570313 12.53257813 -9 12 C-7.78585672 10.33156703 -6.59999345 8.64232301 -5.4375 6.9375 C-3.71491138 4.41474118 -2.16055991 2.16055991 0 0 Z " fill="#B43636" transform="translate(19,20)"/>
<path d="M0 0 C0.99 0.33 1.98 0.66 3 1 C-0.465 3.97 -0.465 3.97 -4 7 C-4 4 -4 4 -2 1.8125 C-1.34 1.214375 -0.68 0.61625 0 0 Z " fill="#B13434" transform="translate(30,26)"/>
</svg>
